<svg width="24" height="24" viewBox="0 0 24 24" fill="none" xmlns="http://www.w3.org/2000/svg">
<path d="M21 7.35302V16.647C21.0001 16.7541 20.9714 16.8593 20.9171 16.9517C20.8627 17.044 20.7847 17.1201 20.691 17.172L12.291 21.838C12.202 21.8874 12.1018 21.9133 12 21.9133C11.8982 21.9133 11.798 21.8874 11.709 21.838L3.309 17.172C3.21532 17.1201 3.13725 17.044 3.08292 16.9517C3.02858 16.8593 2.99995 16.7541 3 16.647V7.35302C3.00013 7.24607 3.02884 7.14109 3.08317 7.04896C3.1375 6.95683 3.21547 6.8809 3.309 6.82902L11.709 2.16202C11.798 2.11264 11.8982 2.08673 12 2.08673C12.1018 2.08673 12.202 2.11264 12.291 2.16202L20.691 6.82902C20.7845 6.8809 20.8625 6.95683 20.9168 7.04896C20.9712 7.14109 20.9999 7.24607 21 7.35302Z" stroke="#53B173" stroke-width="1.5" stroke-linecap="round" stroke-linejoin="round"/>
<path d="M3.52795 7.29402L11.708 11.838C11.7971 11.8876 11.8974 11.9136 11.9995 11.9136C12.1015 11.9136 12.2018 11.8876 12.291 11.838L20.5 7.27802M12 21V12" stroke="#53B173" stroke-width="1.5" stroke-linecap="round" stroke-linejoin="round"/>
<path d="M11.691 11.829L3.891 7.49503C3.79964 7.44436 3.69663 7.41843 3.59217 7.41979C3.48771 7.42115 3.38541 7.44977 3.29541 7.5028C3.2054 7.55584 3.1308 7.63145 3.07899 7.72217C3.02718 7.81289 2.99995 7.91556 3 8.02003V16.647C2.99995 16.7542 3.02858 16.8593 3.08292 16.9517C3.13725 17.044 3.21532 17.1201 3.309 17.172L11.109 21.505C11.2004 21.5557 11.3034 21.5816 11.4078 21.5803C11.5123 21.5789 11.6146 21.5503 11.7046 21.4973C11.7946 21.4442 11.8692 21.3686 11.921 21.2779C11.9728 21.1872 12.0001 21.0845 12 20.98V12.353C11.9999 12.2461 11.9712 12.1411 11.9168 12.049C11.8625 11.9568 11.7845 11.8809 11.691 11.829Z" fill="#53B173" stroke="#53B173" stroke-width="1.5" stroke-linejoin="round"/>
</svg>
